<?xml version="1.0" encoding="UTF-8" standalone="no"?>
<svg
   version="1.0"
   width="1200"
   height="1060.62"
   viewBox="0 0 900 795.465"
   preserveAspectRatio="xMidYMid"
   id="svg3"
   sodipodi:docname="logo-light.svg"
   inkscape:version="1.3.2 (091e20e, 2023-11-25, custom)"
   xmlns:inkscape="http://www.inkscape.org/namespaces/inkscape"
   xmlns:sodipodi="http://sodipodi.sourceforge.net/DTD/sodipodi-0.dtd"
   xmlns="http://www.w3.org/2000/svg"
   xmlns:svg="http://www.w3.org/2000/svg">
  <defs
     id="defs3" />
  <sodipodi:namedview
     id="namedview3"
     pagecolor="#ffffff"
     bordercolor="#000000"
     borderopacity="0.25"
     inkscape:showpageshadow="2"
     inkscape:pageopacity="0.0"
     inkscape:pagecheckerboard="0"
     inkscape:deskcolor="#d1d1d1"
     inkscape:document-units="pt"
     showgrid="false"
     inkscape:zoom="0.60975"
     inkscape:cx="479.7048"
     inkscape:cy="545.30545"
     inkscape:window-width="1920"
     inkscape:window-height="1009"
     inkscape:window-x="-8"
     inkscape:window-y="-8"
     inkscape:window-maximized="1"
     inkscape:current-layer="svg3" />
  <g
     id="g4"
     transform="translate(30.866904,116.04314)"
     style="fill:#f2f6ee;fill-opacity:1">
    <text
       xml:space="preserve"
       style="font-style:normal;font-variant:normal;font-weight:normal;font-stretch:normal;font-size:300px;font-family:Roboto;-inkscape-font-specification:Roboto;fill:#f2f6ee;stroke-width:2.25;fill-opacity:1"
       x="10.807913"
       y="457.20483"
       id="text1"><tspan
         sodipodi:role="line"
         id="tspan1"
         style="font-style:normal;font-variant:normal;font-weight:900;font-stretch:normal;font-size:300px;font-family:Roboto;-inkscape-font-specification:'Roboto Heavy';stroke-width:2.25;fill:#f2f6ee;fill-opacity:1"
         x="10.807913"
         y="457.20483">PUNK</tspan><tspan
         sodipodi:role="line"
         style="font-style:normal;font-variant:normal;font-weight:900;font-stretch:normal;font-size:300px;font-family:Roboto;-inkscape-font-specification:'Roboto Heavy';stroke-width:2.25;fill:#f2f6ee;fill-opacity:1"
         x="10.807913"
         y="832.20483"
         id="tspan2" /></text>
    <text
       xml:space="preserve"
       style="font-style:normal;font-variant:normal;font-weight:900;font-stretch:normal;font-size:300px;font-family:Roboto;-inkscape-font-specification:'Roboto Heavy';fill:#f2f6ee;stroke-width:2.25;fill-opacity:1"
       x="33.220024"
       y="676.49194"
       id="text3"><tspan
         sodipodi:role="line"
         id="tspan3"
         style="font-size:300px;stroke-width:2.25;fill:#f2f6ee;fill-opacity:1"
         x="33.220024"
         y="676.49194">CODE</tspan></text>
  </g>
  <path
     style="fill:#f2f6ee;fill-opacity:1;stroke:none;stroke-width:0;stroke-dasharray:none"
     d="m 437.86282,198.28191 c -23.27932,-1.56558 -43.80662,-7.29014 -44.49857,-12.40956 -0.36276,-2.68388 8.84559,-20.46195 15.72494,-30.35927 19.56106,-28.14252 49.69936,-49.00668 110.87659,-76.757695 26.45903,-12.002257 30.04187,-14.623401 15.62768,-11.432903 -57.95057,12.82702 -107.32196,41.582078 -143.14297,83.369838 l -11.15592,13.01416 0.12752,-5.26441 c 0.30257,-12.4918 5.61741,-31.09922 12.79991,-44.81285 25.92421,-49.497434 93.69502,-77.184588 183.13021,-74.816199 19.15018,0.507127 42.26602,2.76542 42.45281,4.147412 0.0779,0.576088 -2.88349,7.211185 -6.58079,14.744659 -30.8744,62.908468 -88.8088,118.216728 -141.24118,134.838808 -9.66611,3.06434 -28.0087,6.14901 -34.12023,5.73801 z"
     id="path6" />
  <path
     style="fill:#f2f6ee;fill-opacity:1;stroke:none;stroke-width:0;stroke-dasharray:none"
     d="M 266.09767,246.38069 C 227.578,237.95761 198.88854,220.77917 162.33202,184.24881 141.43773,163.36946 129.37837,148.70209 113.19382,124.48373 101.58484,107.11222 81.59386,69.067222 74.1008,50.085486 69.84326,39.300111 62.13432,14.899269 60.35793,6.585646 L 59.47345,2.446199 72.20997,3.255041 c 51.49644,3.27032 99.38977,11.957303 136.48071,24.755132 14.47951,4.995998 48.33825,21.050018 62.39743,29.585559 28.76811,17.465529 56.38766,46.879938 67.70556,72.105418 5.50617,12.27222 10.83779,29.85345 12.34467,40.70704 1.5156,10.91637 1.81341,38.97513 0.41332,38.94217 -0.50738,-0.0119 -4.79705,-5.95843 -9.5326,-13.21437 C 320.57431,163.27768 295.12584,133.99342 268.83333,111.91914 243.6754,90.7974 208.12413,69.977541 174.00277,56.383576 159.75812,50.7085 155.6722,49.694742 155.6722,51.835577 c 0,0.624296 12.86901,9.697223 28.59779,20.16206 86.01479,57.228253 118.41615,89.678853 137.84323,138.052733 6.9652,17.34349 10.49568,30.74909 8.59788,32.6469 -2.83795,2.83795 -16.29183,4.95787 -34.81749,5.4862 -15.65169,0.44636 -20.98647,0.12357 -29.79594,-1.80278 z"
     id="path7" />
  <path
     style="fill:#f2f6ee;fill-opacity:1;stroke:none;stroke-width:0;stroke-dasharray:none"
     d="M 2.2594837,664.81151 C 0.46187306,657.64927 2.9423091,589.26611 5.7289679,569.1613 15.734583,496.97412 35.166388,451.84005 72.711875,413.58073 138.15581,346.89253 255.27442,335.00757 390.3239,381.35009 c 25.09826,8.61252 38.13703,13.87884 72.54828,29.30206 13.29228,5.95764 25.1004,10.82045 26.24026,10.80625 1.13986,-0.0142 8.34553,-5.59965 16.01261,-12.41213 94.25981,-83.75327 203.95475,-136.07514 321.489,-153.34256 20.40078,-2.99716 28.68702,-3.37239 58.99481,-2.67147 54.5969,1.26263 88.67647,9.29524 132.02534,31.11859 94.337,47.49248 157.6189,143.32787 176.4645,267.24113 3.7719,24.80128 5.8393,77.30423 4.0064,101.74457 l -1.1992,15.99016 -14.1971,-4.3e-4 -14.1971,-4.2e-4 -0.064,-47.15005 c -0.05,-36.44326 -0.7178,-51.4328 -2.9429,-66.01023 -6.612,-43.31772 -17.8305,-79.87091 -35.4852,-115.62116 -41.1415,-83.31022 -107.9505,-136.27327 -193.85294,-153.67769 -16.37282,-3.31724 -23.34527,-3.76388 -58.75769,-3.76388 -44.65198,0 -58.5536,1.64187 -97.16997,11.47642 -102.97904,26.22599 -198.85822,79.49663 -270.09243,150.0638 -7.28505,7.21684 -13.91959,13.12153 -14.74342,13.12153 -0.82383,0 -14.65602,-6.18628 -30.73823,-13.74728 C 326.02035,378.63405 214.40264,365.55793 133.66134,405.03996 64.54913,438.83542 31.249793,515.18444 31.177232,640.0164 l -0.01692,29.11029 H 17.251418 c -13.6533132,0 -13.9287951,-0.0793 -14.9919343,-4.31518 z"
     id="path8"
     transform="scale(0.75)" />
</svg>
